<svg xmlns="http://www.w3.org/2000/svg" version="1.1" xmlns:xlink="http://www.w3.org/1999/xlink" xmlns:svgjs="http://svgjs.dev/svgjs" width="1500" height="1500" viewBox="0 0 1500 1500"><rect width="1500" height="1500" fill="#ffffff"></rect><g transform="matrix(0.6666666666666666,0,0,0.6666666666666666,250,246.54822165367557)"><svg viewBox="0 0 280 281" data-background-color="#636365" preserveAspectRatio="xMidYMid meet" height="1505" width="1500" xmlns="http://www.w3.org/2000/svg" xmlns:xlink="http://www.w3.org/1999/xlink"><g id="tight-bounds" transform="matrix(1,0,0,1,0,0.4999498823759154)"><svg viewBox="0 0 280 280" height="280" width="280"><g><svg viewBox="0 0 280 280" height="280" width="280"><g><svg viewBox="0 0 280 280" height="280" width="280"><g id="textblocktransform"><svg viewBox="0 0 280 280" height="280" width="280" id="textblock"><g><svg viewBox="0 0 280 280" height="280" width="280"><g transform="matrix(1,0,0,1,57.50420886156945,57.50420886156945)"><svg viewBox="0 0 164.9915822768611 164.9915822768611" height="164.9915822768611" width="164.9915822768611"><g id="icon-0"><circle r="82" cx="82.49579113843055" cy="82.49579113843055" fill="#000000" data-fill-palette-color="accent"></circle><svg xmlns="http://www.w3.org/2000/svg" xmlns:xlink="http://www.w3.org/1999/xlink" version="1.1" baseProfile="basic" x="24.748737341529164" y="24.74873734152917" viewBox="18.818 18.966 63.86800000000001 62.434000000000005" xml:space="preserve" height="115.49410759380275" width="115.49410759380275" class="icon-jxe-0" data-fill-palette-color="quaternary" id="jxe-0"><g fill="#636365" data-fill-palette-color="quaternary"><circle cx="38.373" cy="59.574" r="5.4" fill="#ffffff" data-fill-palette-color="quaternary"></circle><path d="M41.459 65.939L41.427 65.874H35.295L33.918 66.037H33.721C33.653 66.045 33.592 66.061 33.525 66.069L33.231 66.103H33.198C27.3 66.935 26.771 69.741 26.771 69.741L26.706 70.265V81.4H50.051V70.266L49.985 69.742C49.985 69.741 49.363 66.332 41.459 65.939" fill="#ffffff" data-fill-palette-color="quaternary"></path><path d="M69.92 65.939L69.887 65.874H63.756L62.379 66.037H62.182C62.114 66.045 62.053 66.061 61.985 66.069L61.69 66.103H61.659C55.761 66.935 55.231 69.741 55.231 69.741L55.167 70.265V81.4H78.51V70.266L78.445 69.742C78.443 69.741 77.822 66.332 69.92 65.939" fill="#ffffff" data-fill-palette-color="quaternary"></path><circle cx="66.835" cy="59.574" r="5.4" fill="#ffffff" data-fill-palette-color="quaternary"></circle><circle cx="28.756" cy="35.065" r="4.1" fill="#ffffff" data-fill-palette-color="quaternary"></circle><path d="M47.165 38.494L58.215 26.587 49.097 39.483C49.277 39.672 49.439 39.881 49.575 40.116A3.76 3.76 0 0 1 49.576 43.811C48.966 44.868 47.887 45.474 46.617 45.474H39.47V53.301A6.37 6.37 0 0 1 44.76 59.299H60.51C60.655 55.914 63.446 53.204 66.865 53.204 67.185 53.204 67.496 53.235 67.803 53.281V23.218A4.265 4.265 0 0 0 63.551 18.966H43.722A4.265 4.265 0 0 0 39.47 23.218V38.451L46.609 38.449C46.799 38.45 46.984 38.468 47.165 38.494" fill="#ffffff" data-fill-palette-color="quaternary"></path><path d="M28.276 66.65V60.4H29.358L29.356 66.1C30.319 65.686 31.536 65.332 33.089 65.114L33.442 65.077C33.523 65.061 33.579 65.052 33.639 65.044L34.205 64.994V64.344A6.34 6.34 0 0 1 32.034 59.575C32.034 57.67 32.879 55.962 34.208 54.794L34.211 46.002V44.058H46.607C49.209 44.066 49.209 40.034 46.609 40.034H33.676V40.038H33.401L23.911 40.034C20.849 40.034 18.929 42.533 18.929 45.649V58.937C18.929 61.519 22.341 61.519 22.341 58.937V46.001H23.427L23.42 78.975A2.423 2.423 0 0 0 25.737 81.39L25.744 70.145 25.808 69.62C25.86 69.342 26.225 67.881 28.276 66.65" fill="#ffffff" data-fill-palette-color="quaternary"></path><rect x="51.068" y="73.895" width="3.028" height="1.502" fill="#ffffff" data-fill-palette-color="quaternary"></rect><rect x="79.658" y="73.895" width="3.028" height="1.502" fill="#ffffff" data-fill-palette-color="quaternary"></rect><rect x="18.818" y="73.895" width="3.522" height="1.502" fill="#ffffff" data-fill-palette-color="quaternary"></rect></g></svg></g></svg></g><g id="text-0"><path d="M28.663 100.542v0c-0.134 0.415-0.468 0.777-1.005 1.085-0.542 0.305-1.206 0.565-1.991 0.778-0.789 0.205-1.643 0.363-2.56 0.476-0.918 0.113-1.828 0.171-2.732 0.175v0c-0.252 0.005-0.552 0.001-0.9-0.01-0.356-0.007-0.686-0.06-0.991-0.158v0c-0.208-0.067-0.392-0.162-0.553-0.286-0.152-0.128-0.315-0.291-0.487-0.489v0c-0.481-0.577-0.91-1.224-1.289-1.941-0.378-0.716-0.674-1.467-0.887-2.252-0.222-0.781-0.343-1.55-0.364-2.309-0.014-0.757 0.083-1.46 0.292-2.109v0c0.165-0.513 0.397-0.811 0.695-0.894 0.297-0.076 0.663-0.045 1.098 0.095v0c0.415 0.134 0.762 0.303 1.041 0.507 0.285 0.206 0.487 0.411 0.608 0.615 0.121 0.204 0.159 0.374 0.115 0.51v0c-0.079 0.247-0.246 0.508-0.499 0.785-0.252 0.27-0.451 0.632-0.597 1.086v0c-0.251 0.779-0.231 1.577 0.057 2.394 0.289 0.817 0.68 1.505 1.174 2.064v0l-1.133-0.687c2.442-0.11 4.326-0.331 5.651-0.664 1.323-0.327 2.317-0.655 2.982-0.986v0c0.429-0.22 0.745-0.434 0.947-0.64 0.203-0.207 0.398-0.28 0.587-0.22v0c0.247 0.079 0.439 0.317 0.577 0.712 0.133 0.387 0.218 0.804 0.252 1.253 0.033 0.455 0.003 0.825-0.088 1.11zM26.617 107.202l-0.639 1.987c-0.111 0.344-0.404 0.543-0.88 0.598-0.483 0.053-0.993-0.019-1.533-0.214v0c-0.643-0.228-1.394-0.531-2.255-0.908-0.865-0.386-1.717-0.764-2.557-1.135v0l-6.463-2.96c-0.813-0.39-1.563-0.664-2.25-0.821-0.681-0.155-1.293-0.269-1.835-0.343-0.544-0.068-0.995-0.159-1.352-0.273v0c-0.214-0.069-0.346-0.294-0.395-0.676-0.056-0.383-0.065-0.812-0.026-1.287 0.036-0.468 0.103-0.855 0.201-1.16v0c0.102-0.318 0.424-0.526 0.964-0.625 0.547-0.096 1.122-0.047 1.726 0.147v0c0.136 0.044 0.5 0.182 1.091 0.416 0.6 0.229 1.27 0.527 2.012 0.894v0l6.249 3.021c1.303 0.627 2.621 1.194 3.955 1.702 1.332 0.514 2.661 1.06 3.987 1.637z" fill="#000000" data-fill-palette-color="primary"></path><path d="M31.769 93.037v0c-0.33 0.704-0.781 1.159-1.352 1.366-0.569 0.2-1.239 0.119-2.011-0.243v0c-0.272-0.127-0.542-0.258-0.81-0.391-0.266-0.14-0.577-0.32-0.934-0.54-0.363-0.223-0.823-0.51-1.38-0.862v0l-7.584-4.812 0.89-1.899c0.142-0.303 0.412-0.421 0.81-0.354 0.398 0.066 0.851 0.218 1.357 0.456v0c0.377 0.177 0.859 0.433 1.447 0.769 0.591 0.345 1.231 0.747 1.92 1.206v0l2.062 1.362c0.474 0.305 0.902 0.566 1.282 0.783 0.39 0.213 0.711 0.379 0.965 0.497v0c0.358 0.168 0.652 0.257 0.88 0.266 0.229 0.01 0.399-0.103 0.509-0.337v0c0.127-0.272 0.088-0.708-0.12-1.311-0.201-0.599-0.517-1.282-0.948-2.049-0.44-0.764-0.94-1.522-1.498-2.273-0.562-0.746-1.135-1.41-1.721-1.994-0.585-0.583-1.131-0.994-1.637-1.231v0c-0.414-0.194-0.786-0.308-1.116-0.343-0.324-0.032-0.571-0.099-0.741-0.201v0c-0.161-0.075-0.258-0.245-0.292-0.51-0.025-0.268-0.01-0.566 0.046-0.893 0.047-0.325 0.117-0.642 0.209-0.953 0.093-0.31 0.177-0.546 0.253-0.706v0c0.145-0.309 0.437-0.466 0.876-0.47 0.445-0.002 0.984 0.19 1.616 0.577v0l10.875 6.661-0.886 1.889c-0.101 0.216-0.294 0.337-0.577 0.362-0.286 0.016-0.585-0.022-0.895-0.115-0.307-0.084-0.535-0.161-0.683-0.23v0c-0.414-0.194-0.837-0.464-1.27-0.81-0.433-0.346-0.975-0.812-1.627-1.396-0.649-0.576-1.493-1.307-2.531-2.193v0l0.454 0.213c1.516 1.57 2.625 3.035 3.327 4.397 0.699 1.368 1.099 2.579 1.198 3.635 0.097 1.062-0.024 1.955-0.363 2.677z" fill="#000000" data-fill-palette-color="primary"></path><path d="M49.629 63.968l-1.256 1.793c-0.125 0.179-0.299 0.249-0.521 0.21-0.232-0.037-0.46-0.122-0.684-0.254-0.224-0.132-0.403-0.245-0.537-0.339v0c-0.223-0.156-0.505-0.378-0.845-0.666-0.334-0.284-0.685-0.592-1.052-0.923-0.365-0.322-0.679-0.612-0.939-0.87v0l-2.255-2.202c-0.289-0.277-0.563-0.54-0.822-0.787-0.25-0.25-0.537-0.488-0.861-0.715v0c-0.246-0.172-0.466-0.256-0.661-0.251-0.204 0.007-0.363 0.091-0.477 0.254v0c-0.149 0.212-0.191 0.707-0.127 1.484 0.068 0.772 0.283 1.701 0.647 2.787 0.362 1.077 0.913 2.216 1.653 3.417 0.741 1.201 1.72 2.323 2.938 3.367v0l-3.985-1.977c-1.425-1.996-2.41-3.8-2.954-5.413-0.554-1.611-0.792-3.001-0.715-4.171 0.074-1.164 0.322-2.047 0.744-2.651v0c0.352-0.503 0.725-0.845 1.119-1.028 0.39-0.177 0.806-0.218 1.249-0.125 0.448 0.097 0.91 0.312 1.384 0.644v0c0.341 0.239 0.684 0.521 1.031 0.847 0.341 0.322 0.7 0.665 1.078 1.029v0zM38.292 80.381v0c-0.149 0.212-0.296 0.346-0.443 0.402-0.147 0.055-0.379-0.024-0.696-0.237-0.315-0.204-0.787-0.588-1.415-1.153v0l-9.388-8.28 1.202-1.718c0.227-0.324 0.574-0.439 1.041-0.346 0.467 0.094 0.93 0.301 1.388 0.622v0c0.212 0.149 0.502 0.443 0.868 0.882 0.361 0.436 0.733 0.909 1.117 1.419 0.384 0.51 0.719 0.965 1.005 1.365v0l1.558 2.038 0.491-1.004 3.702 3.202c0.15 0.13 0.232 0.329 0.245 0.596 0.007 0.263-0.025 0.541-0.096 0.832-0.071 0.292-0.16 0.562-0.268 0.811-0.113 0.245-0.217 0.435-0.311 0.569zM43.348 73.157v0c-0.203 0.291-0.387 0.428-0.551 0.413-0.159-0.011-0.378-0.114-0.657-0.31v0c-0.246-0.172-0.624-0.482-1.134-0.931-0.514-0.443-1.275-1.163-2.284-2.16v0l-2.212-2.21c-0.281-0.288-0.565-0.566-0.853-0.833-0.291-0.262-0.602-0.508-0.931-0.739v0c-0.229-0.16-0.429-0.238-0.599-0.232-0.172-0.004-0.321 0.084-0.446 0.262v0c-0.16 0.229-0.214 0.741-0.162 1.534 0.052 0.794 0.26 1.734 0.623 2.821 0.354 1.088 0.901 2.233 1.642 3.434 0.741 1.201 1.72 2.323 2.938 3.367v0l-4.02-1.927c-1.075-1.485-1.885-2.879-2.429-4.184-0.549-1.308-0.903-2.492-1.061-3.551-0.158-1.059-0.173-1.977-0.045-2.754 0.133-0.773 0.348-1.371 0.645-1.796v0c0.375-0.536 0.766-0.887 1.173-1.052 0.407-0.165 0.812-0.197 1.217-0.097 0.405 0.1 0.777 0.269 1.118 0.507v0c0.408 0.285 0.788 0.647 1.139 1.085 0.351 0.437 0.765 0.989 1.24 1.654 0.473 0.656 1.11 1.459 1.909 2.41v0l0.27-1.01 3.952 3.415c0.15 0.13 0.236 0.323 0.257 0.579 0.011 0.258-0.023 0.533-0.104 0.826-0.086 0.289-0.188 0.572-0.306 0.848-0.114 0.27-0.224 0.48-0.329 0.631z" fill="#000000" data-fill-palette-color="primary"></path><path d="M59.94 53.278v0c-0.308 0.309-0.771 0.478-1.388 0.508-0.622 0.025-1.331-0.047-2.127-0.215-0.796-0.178-1.628-0.425-2.496-0.742-0.868-0.317-1.705-0.68-2.511-1.09v0c-0.227-0.111-0.492-0.25-0.796-0.419-0.314-0.168-0.584-0.366-0.811-0.592v0c-0.154-0.154-0.275-0.323-0.362-0.506-0.077-0.183-0.148-0.402-0.211-0.658v0c-0.165-0.733-0.252-1.504-0.263-2.314-0.011-0.81 0.068-1.613 0.236-2.409 0.158-0.796 0.401-1.536 0.728-2.222 0.332-0.68 0.739-1.262 1.221-1.744v0c0.381-0.381 0.723-0.541 1.026-0.479 0.299 0.067 0.61 0.262 0.934 0.585v0c0.309 0.308 0.541 0.617 0.696 0.925 0.159 0.313 0.247 0.588 0.261 0.825 0.015 0.236-0.028 0.405-0.13 0.506v0c-0.183 0.183-0.451 0.34-0.802 0.471-0.347 0.126-0.689 0.358-1.026 0.696v0c-0.578 0.579-0.924 1.298-1.04 2.156-0.115 0.858-0.08 1.649 0.104 2.373v0l-0.695-1.128c2.224 1.015 4.002 1.676 5.333 1.984 1.326 0.312 2.361 0.472 3.103 0.481v0c0.482-0.001 0.861-0.047 1.136-0.139 0.275-0.092 0.482-0.068 0.622 0.072v0c0.183 0.183 0.246 0.482 0.189 0.896-0.057 0.405-0.173 0.815-0.346 1.23-0.178 0.42-0.373 0.736-0.585 0.949zM55.085 58.274l-1.474 1.477c-0.255 0.256-0.607 0.3-1.056 0.132-0.453-0.173-0.876-0.469-1.267-0.889v0c-0.468-0.496-0.999-1.108-1.593-1.835-0.594-0.737-1.181-1.462-1.76-2.175v0l-4.404-5.58c-0.546-0.718-1.089-1.303-1.63-1.756-0.536-0.448-1.028-0.828-1.476-1.141-0.454-0.308-0.813-0.595-1.079-0.859v0c-0.159-0.159-0.174-0.419-0.044-0.782 0.125-0.367 0.313-0.753 0.562-1.158 0.245-0.401 0.481-0.714 0.708-0.941v0c0.236-0.237 0.617-0.276 1.143-0.117 0.531 0.163 1.02 0.469 1.469 0.917v0c0.101 0.101 0.362 0.39 0.783 0.867 0.43 0.477 0.891 1.048 1.383 1.713v0l4.187 5.536c0.874 1.152 1.789 2.257 2.745 3.317 0.951 1.065 1.885 2.156 2.803 3.274z" fill="#000000" data-fill-palette-color="primary"></path><path d="M66.125 48.014v0c-0.615 0.476-1.223 0.676-1.827 0.599-0.597-0.081-1.157-0.458-1.679-1.132v0c-0.184-0.237-0.365-0.477-0.543-0.718-0.173-0.246-0.368-0.547-0.584-0.906-0.221-0.364-0.5-0.829-0.836-1.396v0l-4.558-7.74 1.658-1.284c0.264-0.205 0.558-0.187 0.883 0.054 0.324 0.241 0.658 0.582 1 1.024v0c0.255 0.329 0.567 0.777 0.937 1.344 0.369 0.577 0.756 1.226 1.16 1.948v0l1.214 2.153c0.283 0.488 0.545 0.915 0.785 1.281 0.25 0.367 0.46 0.661 0.631 0.882v0c0.242 0.313 0.463 0.526 0.663 0.638 0.2 0.113 0.402 0.09 0.606-0.068v0c0.237-0.184 0.401-0.591 0.491-1.221 0.094-0.625 0.124-1.377 0.09-2.256-0.044-0.881-0.143-1.783-0.297-2.707-0.16-0.92-0.368-1.772-0.623-2.558-0.255-0.786-0.554-1.4-0.896-1.842v0c-0.28-0.361-0.559-0.632-0.837-0.814-0.274-0.176-0.464-0.348-0.569-0.517v0c-0.109-0.14-0.118-0.336-0.027-0.587 0.1-0.25 0.249-0.508 0.448-0.774 0.19-0.268 0.396-0.518 0.621-0.753 0.224-0.234 0.406-0.405 0.546-0.513v0c0.27-0.209 0.601-0.215 0.995-0.02 0.397 0.201 0.789 0.618 1.175 1.251v0l6.644 10.885-1.65 1.278c-0.189 0.146-0.415 0.166-0.678 0.059-0.262-0.116-0.51-0.286-0.745-0.51-0.235-0.215-0.403-0.387-0.503-0.516v0c-0.28-0.361-0.533-0.795-0.761-1.3-0.227-0.505-0.498-1.167-0.812-1.984-0.315-0.808-0.733-1.843-1.253-3.106v0l0.307 0.397c0.634 2.088 0.953 3.898 0.957 5.43-0.001 1.536-0.198 2.797-0.59 3.782-0.398 0.99-0.913 1.729-1.543 2.217z" fill="#000000" data-fill-palette-color="primary"></path><path d="M95.27 30.278l-1.934 1.024c-0.193 0.102-0.379 0.085-0.56-0.051-0.189-0.139-0.354-0.318-0.493-0.537-0.139-0.219-0.247-0.401-0.324-0.546v0c-0.128-0.241-0.277-0.567-0.448-0.978-0.168-0.405-0.34-0.839-0.516-1.301-0.178-0.453-0.325-0.854-0.44-1.203v0l-1.003-2.987c-0.131-0.378-0.255-0.737-0.373-1.076-0.109-0.336-0.255-0.679-0.441-1.029v0c-0.14-0.265-0.299-0.44-0.474-0.524-0.185-0.087-0.365-0.085-0.54 0.008v0c-0.229 0.121-0.492 0.542-0.789 1.263-0.291 0.718-0.523 1.643-0.695 2.776-0.169 1.124-0.197 2.389-0.085 3.795 0.112 1.407 0.472 2.852 1.081 4.336v0l-2.647-3.576c-0.359-2.426-0.413-4.481-0.162-6.165 0.241-1.687 0.663-3.033 1.264-4.038 0.596-1.002 1.219-1.676 1.87-2.02v0c0.542-0.287 1.03-0.422 1.464-0.405 0.428 0.021 0.817 0.173 1.169 0.457 0.355 0.291 0.668 0.692 0.939 1.205v0c0.195 0.368 0.372 0.775 0.532 1.223 0.157 0.442 0.32 0.911 0.49 1.407v0zM77.7 39.722v0c-0.229 0.121-0.422 0.173-0.578 0.156-0.156-0.018-0.326-0.194-0.511-0.528-0.188-0.325-0.432-0.882-0.735-1.672v0l-4.583-11.648 1.853-0.982c0.35-0.185 0.711-0.13 1.084 0.167 0.373 0.296 0.69 0.692 0.952 1.186v0c0.121 0.229 0.245 0.623 0.371 1.181 0.123 0.552 0.239 1.143 0.348 1.772 0.109 0.629 0.2 1.187 0.273 1.673v0l0.457 2.524 0.895-0.67 1.836 4.537c0.074 0.184 0.057 0.398-0.054 0.642-0.113 0.238-0.268 0.47-0.464 0.697-0.196 0.227-0.399 0.427-0.608 0.6-0.213 0.167-0.391 0.288-0.536 0.365zM85.492 35.595v0c-0.313 0.166-0.54 0.205-0.679 0.117-0.136-0.082-0.284-0.274-0.444-0.576v0c-0.14-0.265-0.336-0.714-0.585-1.345-0.256-0.629-0.605-1.616-1.048-2.964v0l-0.962-2.974c-0.119-0.385-0.245-0.762-0.379-1.131-0.14-0.366-0.304-0.727-0.492-1.082v0c-0.131-0.247-0.273-0.407-0.428-0.48-0.151-0.082-0.324-0.072-0.516 0.031v0c-0.247 0.131-0.528 0.561-0.844 1.292-0.315 0.73-0.559 1.662-0.731 2.794-0.181 1.13-0.215 2.398-0.103 3.805 0.112 1.407 0.472 2.852 1.081 4.336v0l-2.701-3.547c-0.28-1.812-0.365-3.422-0.255-4.831 0.107-1.415 0.332-2.63 0.675-3.645 0.342-1.015 0.747-1.839 1.214-2.472 0.47-0.627 0.935-1.062 1.393-1.304v0c0.579-0.306 1.086-0.44 1.523-0.402 0.437 0.039 0.813 0.195 1.128 0.468 0.315 0.273 0.569 0.594 0.763 0.961v0c0.233 0.44 0.406 0.935 0.52 1.484 0.114 0.55 0.23 1.229 0.35 2.038 0.122 0.799 0.323 1.805 0.601 3.015v0l0.701-0.776 1.962 4.841c0.074 0.184 0.063 0.395-0.036 0.632-0.107 0.234-0.264 0.464-0.469 0.689-0.208 0.218-0.428 0.423-0.658 0.615-0.224 0.188-0.418 0.326-0.581 0.411z" fill="#000000" data-fill-palette-color="primary"></path><path d="M110.486 25.265v0c-0.922 0.247-1.643 0.151-2.164-0.288-0.52-0.439-0.869-1.253-1.047-2.441v0l-1.238-9.115-0.929 0.249c-0.283 0.076-0.466-0.041-0.549-0.351v0c-0.051-0.191 0.003-0.502 0.162-0.933 0.165-0.44 0.388-0.934 0.672-1.483 0.283-0.549 0.588-1.086 0.913-1.611 0.327-0.518 0.636-0.958 0.928-1.319 0.3-0.356 0.545-0.559 0.736-0.61v0c0.211-0.057 0.378-0.013 0.501 0.13 0.123 0.143 0.199 0.346 0.227 0.607v0l0.355 2.351 3.231-0.867c0.29-0.078 0.47-0.077 0.541 0.003 0.073 0.086 0.101 0.245 0.085 0.475v0c-0.056 0.714-0.166 1.171-0.331 1.371-0.165 0.2-0.518 0.372-1.059 0.516v0l-2.302 0.618 0.929 6.381c0.064 0.371 0.124 0.726 0.179 1.064 0.062 0.336 0.129 0.64 0.202 0.91v0c0.118 0.441 0.308 0.726 0.568 0.854 0.258 0.121 0.628 0.117 1.109-0.012v0c0.461-0.124 0.837-0.327 1.128-0.61 0.285-0.281 0.493-0.439 0.625-0.475v0c0.158-0.042 0.263 0.032 0.314 0.223v0c0.051 0.191 0.022 0.488-0.089 0.893-0.111 0.404-0.316 0.837-0.616 1.298-0.3 0.462-0.704 0.888-1.213 1.279-0.514 0.399-1.137 0.697-1.868 0.893z" fill="#000000" data-fill-palette-color="primary"></path><path d="M121.502 21.623v0l-1.44-4.345c0.417-2.004 0.889-3.76 1.415-5.271 0.533-1.511 1.13-2.715 1.792-3.611 0.661-0.896 1.392-1.41 2.193-1.542v0c0.458-0.075 0.807 0.013 1.049 0.263 0.242 0.251 0.398 0.595 0.47 1.032v0c0.064 0.39 0.082 0.774 0.054 1.152-0.028 0.378-0.106 0.698-0.236 0.961-0.128 0.27-0.31 0.424-0.546 0.463v0c-0.215 0.035-0.469 0.004-0.761-0.092-0.285-0.091-0.652-0.1-1.104-0.027v0c-0.296 0.049-0.62 0.413-0.971 1.093-0.357 0.688-0.692 1.575-1.003 2.663-0.318 1.096-0.562 2.28-0.734 3.552-0.179 1.266-0.239 2.503-0.178 3.709zM119.202 23.151v0c-0.256 0.042-0.455 0.03-0.597-0.036-0.142-0.066-0.248-0.288-0.316-0.664-0.074-0.368-0.129-0.974-0.164-1.818v0l-0.632-12.502 2.069-0.34c0.296-0.049 0.597 0.123 0.903 0.515 0.306 0.392 0.505 0.864 0.596 1.416v0c0.042 0.256 0.034 0.668-0.025 1.238-0.06 0.563-0.138 1.16-0.235 1.79-0.097 0.631-0.188 1.189-0.274 1.673v0l-0.371 2.539 1.062-0.351 0.284 5.012c0.012 0.198-0.078 0.389-0.269 0.573-0.198 0.185-0.431 0.344-0.699 0.478-0.268 0.134-0.527 0.242-0.776 0.324-0.249 0.082-0.434 0.134-0.556 0.153z" fill="#000000" data-fill-palette-color="primary"></path><path d="M132.703 21.465v0c-1.117 0.056-1.937-0.357-2.459-1.24-0.522-0.882-0.824-2.14-0.906-3.775v0c-0.073-1.451 0.075-2.797 0.444-4.037 0.368-1.234 0.898-2.312 1.589-3.234 0.691-0.922 1.512-1.653 2.461-2.192 0.957-0.533 1.98-0.826 3.07-0.881v0c0.858-0.043 1.647 0.03 2.366 0.219 0.72 0.196 1.335 0.401 1.844 0.615v0l-0.711 3.18c-0.556-0.334-1.175-0.634-1.858-0.901-0.682-0.259-1.31-0.46-1.884-0.602-0.574-0.142-1-0.206-1.28-0.192v0c-0.559 0.028-1.059 0.326-1.502 0.895-0.442 0.575-0.772 1.35-0.99 2.323-0.224 0.981-0.305 2.098-0.242 3.351v0c0.058 1.158 0.187 2.032 0.388 2.623 0.2 0.584 0.491 0.867 0.872 0.848v0c0.259-0.013 0.68-0.328 1.264-0.944 0.59-0.617 1.291-1.635 2.1-3.055 0.803-1.419 1.633-3.325 2.489-5.717v0l0.971 2.614c-0.957 2.438-1.887 4.389-2.79 5.855-0.903 1.465-1.789 2.527-2.657 3.185-0.861 0.664-1.721 1.018-2.579 1.062zM141.92 20.819l-2.085 0.104c-0.402 0.02-0.65-0.162-0.744-0.546-0.101-0.384-0.163-0.794-0.184-1.231v0c-0.017-0.341 0.006-0.762 0.069-1.263 0.064-0.502 0.152-1.046 0.267-1.632 0.108-0.579 0.229-1.152 0.365-1.718v0l0.541-2.28-0.907-0.733 0.489-4.542c0.635-0.134 1.191-0.292 1.667-0.472 0.483-0.181 0.884-0.341 1.205-0.481 0.321-0.132 0.553-0.202 0.696-0.209v0c0.218-0.011 0.333 0.103 0.345 0.342v0c0.005 0.095-0.097 0.524-0.305 1.285-0.214 0.762-0.436 1.725-0.664 2.891-0.235 1.173-0.387 2.437-0.455 3.792v0z" fill="#000000" data-fill-palette-color="primary"></path><path d="M149.906 21.187l-2.084-0.109c-0.341-0.018-0.552-0.224-0.633-0.618-0.075-0.393-0.101-0.801-0.079-1.223v0c0.038-0.715 0.105-1.35 0.202-1.905 0.098-0.555 0.205-1.167 0.322-1.837v0l1.578-9.525 2.094 0.11c0.395 0.021 0.642 0.252 0.742 0.694 0.093 0.442 0.125 0.942 0.095 1.501v0c-0.015 0.279-0.047 0.571-0.098 0.876-0.057 0.311-0.144 0.781-0.258 1.41v0l-0.829 4.843c-0.17 1.029-0.325 1.888-0.463 2.577-0.132 0.69-0.242 1.281-0.329 1.776-0.088 0.501-0.174 0.978-0.26 1.43zM151.334 4.371v0c-0.558-0.029-1.032-0.242-1.421-0.639-0.389-0.403-0.566-0.914-0.534-1.534v0c0.039-0.736 0.307-1.295 0.806-1.678 0.505-0.376 1.063-0.548 1.676-0.516v0c0.579 0.03 1.054 0.223 1.424 0.577 0.37 0.361 0.538 0.879 0.503 1.552v0c-0.036 0.681-0.294 1.231-0.774 1.65-0.48 0.425-1.04 0.621-1.68 0.588z" fill="#000000" data-fill-palette-color="primary"></path><path d="M166.546 23.212l-2.104-0.32c-0.216-0.033-0.362-0.158-0.439-0.377-0.076-0.225-0.112-0.469-0.107-0.73 0.012-0.26 0.03-0.471 0.055-0.633v0c0.041-0.27 0.115-0.621 0.222-1.053 0.106-0.425 0.226-0.876 0.36-1.352 0.127-0.471 0.247-0.88 0.363-1.228v0l0.972-2.998c0.12-0.382 0.234-0.744 0.341-1.086 0.113-0.335 0.199-0.698 0.259-1.089v0c0.045-0.297 0.022-0.531-0.069-0.704-0.097-0.18-0.243-0.285-0.439-0.315v0c-0.256-0.039-0.718 0.143-1.386 0.545-0.668 0.402-1.405 1.011-2.213 1.827-0.807 0.816-1.58 1.822-2.321 3.02-0.734 1.199-1.302 2.575-1.703 4.129v0l-0.103-4.496c0.853-1.622 1.741-2.967 2.661-4.035 0.915-1.075 1.812-1.918 2.692-2.53 0.879-0.611 1.705-1.031 2.477-1.258 0.772-0.221 1.434-0.289 1.987-0.205v0c0.587 0.089 1.046 0.269 1.377 0.54 0.331 0.271 0.552 0.612 0.662 1.021 0.11 0.41 0.126 0.871 0.049 1.384v0c-0.075 0.492-0.183 0.976-0.324 1.451-0.14 0.468-0.29 0.953-0.448 1.453v0zM155.584 21.671v0c-0.256-0.039-0.442-0.112-0.556-0.219-0.115-0.107-0.147-0.35-0.097-0.728 0.043-0.373 0.178-0.966 0.405-1.781v0l3.253-12.087 2.074 0.315c0.297 0.045 0.53 0.301 0.7 0.768 0.17 0.467 0.214 0.977 0.13 1.53v0c-0.039 0.256-0.174 0.646-0.405 1.17-0.23 0.517-0.489 1.06-0.776 1.631-0.287 0.57-0.546 1.073-0.777 1.506v0l-1.135 2.301 1.118-0.006-1.201 4.774c-0.05 0.192-0.198 0.353-0.445 0.48-0.239 0.122-0.515 0.212-0.827 0.268-0.304 0.05-0.595 0.082-0.874 0.095-0.27 0.007-0.466 0.002-0.587-0.017z" fill="#000000" data-fill-palette-color="primary"></path><path d="M174.327 25.265l-2.018-0.532c-0.33-0.087-0.494-0.331-0.494-0.734 0.007-0.4 0.064-0.805 0.172-1.213v0c0.183-0.692 0.378-1.3 0.586-1.824 0.209-0.523 0.438-1.101 0.69-1.733v0l3.486-9.004 2.027 0.535c0.382 0.101 0.577 0.378 0.585 0.831 0.001 0.452-0.07 0.948-0.212 1.489v0c-0.071 0.27-0.163 0.55-0.274 0.837-0.12 0.293-0.3 0.736-0.541 1.328v0l-1.798 4.572c-0.376 0.973-0.703 1.782-0.979 2.429-0.27 0.648-0.498 1.205-0.684 1.671-0.188 0.472-0.37 0.922-0.546 1.348zM179.153 9.092v0c-0.541-0.143-0.961-0.447-1.261-0.914-0.298-0.474-0.368-1.01-0.21-1.611v0c0.188-0.712 0.565-1.205 1.13-1.479 0.571-0.266 1.153-0.32 1.747-0.163v0c0.561 0.148 0.986 0.433 1.277 0.855 0.289 0.429 0.347 0.97 0.175 1.622v0c-0.174 0.659-0.538 1.145-1.094 1.457-0.557 0.319-1.145 0.396-1.764 0.233z" fill="#000000" data-fill-palette-color="primary"></path><path d="M190.202 30.641l-1.994-0.742c-0.205-0.076-0.322-0.229-0.354-0.459-0.029-0.236-0.014-0.482 0.045-0.737 0.065-0.252 0.126-0.455 0.183-0.608v0c0.095-0.256 0.239-0.584 0.432-0.986 0.191-0.395 0.4-0.812 0.629-1.25 0.22-0.435 0.422-0.811 0.605-1.128v0l1.564-2.737c0.195-0.349 0.381-0.681 0.555-0.993 0.179-0.305 0.337-0.642 0.476-1.013v0c0.105-0.281 0.13-0.516 0.076-0.703-0.058-0.196-0.18-0.329-0.365-0.398v0c-0.243-0.09-0.732-0.007-1.469 0.25-0.736 0.257-1.582 0.703-2.538 1.337-0.956 0.634-1.919 1.462-2.889 2.483-0.963 1.024-1.8 2.256-2.509 3.694v0l0.815-4.422c1.166-1.414 2.309-2.55 3.429-3.407 1.115-0.866 2.166-1.508 3.151-1.927 0.985-0.419 1.88-0.661 2.683-0.727 0.8-0.059 1.463 0.009 1.986 0.205v0c0.556 0.207 0.969 0.477 1.238 0.81 0.269 0.333 0.416 0.711 0.44 1.135 0.024 0.424-0.054 0.879-0.235 1.364v0c-0.174 0.467-0.378 0.918-0.613 1.355-0.233 0.43-0.478 0.874-0.735 1.33v0zM179.785 26.896v0c-0.243-0.09-0.41-0.2-0.5-0.328-0.091-0.128-0.072-0.373 0.055-0.733 0.118-0.356 0.371-0.91 0.759-1.66v0l5.651-11.17 1.966 0.732c0.281 0.105 0.458 0.403 0.529 0.895 0.071 0.492 0.01 1-0.185 1.525v0c-0.09 0.243-0.302 0.597-0.636 1.062-0.331 0.459-0.695 0.938-1.092 1.438-0.397 0.5-0.753 0.939-1.068 1.317v0l-1.581 2.02 1.096 0.222-2.15 4.428c-0.088 0.178-0.266 0.305-0.534 0.38-0.259 0.071-0.547 0.102-0.864 0.093-0.308-0.013-0.6-0.041-0.874-0.085-0.266-0.048-0.456-0.093-0.572-0.136z" fill="#000000" data-fill-palette-color="primary"></path><path d="M195.57 40.39v0c-0.838-0.457-1.537-1-2.094-1.63-0.549-0.633-0.883-1.331-1.003-2.095-0.11-0.767 0.072-1.587 0.549-2.461v0c0.163-0.299 0.34-0.397 0.532-0.293v0c0.084 0.046 0.178 0.144 0.283 0.294 0.099 0.147 0.229 0.342 0.391 0.586v0c0.223 0.347 0.526 0.803 0.909 1.368 0.386 0.56 0.813 1.103 1.279 1.629 0.461 0.523 0.91 0.903 1.347 1.141v0c0.281 0.153 0.581 0.239 0.898 0.256 0.326 0.014 0.699-0.085 1.118-0.3 0.425-0.211 0.918-0.58 1.476-1.106 0.555-0.521 1.211-1.247 1.967-2.179v0l5.186-6.401-0.133-0.888 1.856-3.345c1.198 0.466 2.089 0.769 2.674 0.908 0.584 0.139 0.972 0.261 1.164 0.366v0c0.174 0.095 0.203 0.247 0.089 0.456v0c-0.046 0.084-0.352 0.39-0.92 0.92-0.577 0.532-1.264 1.237-2.061 2.116-0.8 0.884-1.566 1.942-2.299 3.174v0l-2.762 4.623c-0.723 1.198-1.525 2.101-2.407 2.708-0.891 0.61-1.818 0.986-2.782 1.129-0.963 0.143-1.896 0.117-2.798-0.079-0.903-0.196-1.722-0.495-2.459-0.897zM196.95 33.92v0c-0.982-0.535-1.466-1.315-1.451-2.34 0.015-1.025 0.412-2.253 1.191-3.684v0c0.659-1.21 1.455-2.236 2.387-3.08 0.939-0.84 1.939-1.472 3.001-1.895 1.052-0.421 2.123-0.618 3.211-0.592 1.089 0.026 2.115 0.301 3.079 0.826v0c0.749 0.408 1.381 0.88 1.896 1.417 0.512 0.543 0.93 1.038 1.253 1.486v0l-2.266 2.342c-0.3-0.575-0.672-1.154-1.115-1.737-0.447-0.577-0.878-1.076-1.294-1.497-0.416-0.42-0.746-0.698-0.991-0.831v0c-0.491-0.267-1.068-0.263-1.731 0.013-0.663 0.276-1.331 0.762-2.006 1.458-0.674 0.697-1.289 1.554-1.843 2.572v0c-0.551 1.012-0.895 1.823-1.033 2.432-0.137 0.609-0.038 1.004 0.297 1.186v0c0.228 0.124 0.742 0.085 1.542-0.115 0.8-0.201 1.898-0.683 3.292-1.446 1.388-0.766 3.074-1.945 5.058-3.535v0l-0.544 2.732c-2.082 1.584-3.881 2.756-5.396 3.514-1.513 0.753-2.794 1.173-3.844 1.262-1.041 0.086-1.938-0.077-2.693-0.488z" fill="#000000" data-fill-palette-color="primary"></path><path d="M219.169 48.671v0c-1.214-1.004-1.833-2.15-1.857-3.435-0.02-1.291 0.555-2.644 1.725-4.057v0c1.144-1.382 2.445-2.398 3.904-3.05 1.464-0.656 2.932-0.911 4.404-0.764 1.467 0.143 2.807 0.716 4.02 1.721v0c0.646 0.535 1.147 1.091 1.501 1.668 0.349 0.573 0.302 1.127-0.141 1.662v0c-0.191 0.231-0.419 0.432-0.684 0.602-0.27 0.166-0.529 0.275-0.776 0.328-0.252 0.048-0.439 0.022-0.559-0.078v0c-0.063-0.052-0.132-0.14-0.207-0.264-0.08-0.128-0.137-0.246-0.171-0.355v0c-0.086-0.249-0.189-0.542-0.308-0.879-0.123-0.332-0.281-0.671-0.474-1.016-0.197-0.34-0.45-0.638-0.76-0.894v0c-0.473-0.391-1.083-0.52-1.831-0.387-0.748 0.134-1.534 0.479-2.358 1.036-0.819 0.562-1.585 1.273-2.298 2.135v0c-0.939 1.135-1.395 2.033-1.366 2.693 0.038 0.66 0.388 1.264 1.05 1.812v0c0.552 0.457 1.097 0.749 1.637 0.877 0.544 0.123 1.093 0.209 1.645 0.259v0c0.22 0.023 0.376 0.054 0.466 0.094 0.101 0.039 0.182 0.085 0.246 0.137v0c0.074 0.061 0.108 0.142 0.103 0.245-0.005 0.102-0.038 0.19-0.099 0.263v0c-0.23 0.278-0.611 0.503-1.142 0.675-0.527 0.166-1.127 0.249-1.8 0.249-0.673 0.001-1.349-0.098-2.026-0.295-0.677-0.198-1.292-0.525-1.844-0.982z" fill="#000000" data-fill-palette-color="primary"></path><path d="M228.454 57.213v0c-1.069-1.101-1.548-2.29-1.438-3.566 0.111-1.276 0.773-2.504 1.987-3.682v0c1.018-0.988 2.088-1.746 3.209-2.275 1.122-0.538 2.248-0.852 3.378-0.941 1.13-0.099 2.204 0.033 3.22 0.395 1.012 0.357 1.915 0.945 2.709 1.762v0c0.945 0.974 1.459 1.919 1.542 2.837 0.088 0.913-0.255 1.744-1.028 2.495v0c-0.788 0.765-1.727 1.173-2.818 1.224-1.095 0.046-2.324-0.22-3.685-0.8-1.371-0.58-2.858-1.407-4.462-2.482v0l1.021-1.533c0.858 0.688 1.73 1.243 2.615 1.667 0.881 0.418 1.72 0.631 2.516 0.637 0.796 0.007 1.472-0.26 2.03-0.802v0c0.387-0.375 0.607-0.736 0.66-1.082 0.058-0.342-0.1-0.706-0.476-1.092v0c-0.57-0.587-1.267-0.875-2.092-0.863-0.825 0.002-1.682 0.236-2.572 0.7-0.885 0.46-1.713 1.065-2.486 1.815v0c-1.042 1.012-1.585 1.848-1.629 2.508-0.034 0.66 0.256 1.306 0.869 1.937v0c0.637 0.656 1.297 1.131 1.982 1.425 0.685 0.295 1.316 0.509 1.893 0.643v0c0.183 0.041 0.336 0.087 0.461 0.137 0.125 0.04 0.216 0.09 0.273 0.149v0c0.071 0.073 0.099 0.156 0.083 0.247-0.016 0.101-0.061 0.187-0.134 0.259v0c-0.254 0.247-0.667 0.424-1.238 0.531-0.561 0.107-1.212 0.107-1.953 0-0.736-0.103-1.493-0.333-2.268-0.692-0.781-0.354-1.504-0.873-2.169-1.558z" fill="#000000" data-fill-palette-color="primary"></path><path d="M242.34 73.674l-1.285-1.696c-0.132-0.174-0.149-0.366-0.052-0.577 0.103-0.215 0.247-0.414 0.433-0.597 0.19-0.178 0.35-0.317 0.481-0.416v0c0.217-0.165 0.515-0.365 0.893-0.6 0.373-0.231 0.773-0.47 1.202-0.717 0.419-0.249 0.791-0.458 1.116-0.628v0l2.787-1.47c0.352-0.19 0.686-0.37 1.002-0.541 0.314-0.161 0.629-0.361 0.945-0.6v0c0.239-0.181 0.386-0.365 0.441-0.553 0.056-0.197 0.025-0.374-0.095-0.531v0c-0.157-0.207-0.614-0.399-1.373-0.576-0.759-0.178-1.712-0.256-2.86-0.234-1.147 0.022-2.404 0.204-3.77 0.546-1.362 0.348-2.729 0.938-4.099 1.771v0l3.061-3.294c1.743-0.568 3.317-0.913 4.721-1.036 1.406-0.132 2.637-0.111 3.693 0.064 1.057 0.175 1.941 0.45 2.653 0.826 0.707 0.38 1.229 0.793 1.567 1.238v0c0.358 0.473 0.562 0.922 0.611 1.348 0.048 0.425-0.031 0.823-0.238 1.193-0.207 0.371-0.517 0.712-0.93 1.026v0c-0.397 0.301-0.811 0.572-1.244 0.814-0.427 0.238-0.872 0.481-1.335 0.729v0zM235.558 64.926v0c-0.157-0.207-0.239-0.388-0.246-0.545-0.008-0.157 0.139-0.353 0.439-0.59 0.291-0.237 0.801-0.569 1.532-0.993v0l10.761-6.395 1.266 1.671c0.181 0.239 0.17 0.586-0.034 1.04-0.204 0.454-0.528 0.85-0.974 1.187v0c-0.207 0.157-0.575 0.342-1.106 0.556-0.525 0.21-1.09 0.419-1.693 0.628-0.603 0.209-1.139 0.388-1.608 0.538v0l-2.418 0.857 0.806 0.775-4.19 2.584c-0.17 0.103-0.388 0.114-0.654 0.034-0.257-0.079-0.517-0.208-0.78-0.385-0.253-0.176-0.484-0.356-0.692-0.541-0.199-0.183-0.335-0.324-0.409-0.421z" fill="#000000" data-fill-palette-color="primary"></path><path d="M246.304 80.362v0c-0.482-0.824-0.579-1.545-0.293-2.163 0.287-0.618 0.98-1.169 2.079-1.653v0l8.466-3.598-0.485-0.83c-0.148-0.253-0.084-0.461 0.193-0.623v0c0.171-0.1 0.485-0.13 0.943-0.089 0.467 0.043 1.003 0.128 1.608 0.257 0.604 0.129 1.203 0.281 1.795 0.456 0.586 0.179 1.092 0.361 1.516 0.547 0.422 0.196 0.683 0.379 0.783 0.55v0c0.11 0.188 0.112 0.361 0.007 0.517-0.106 0.157-0.281 0.283-0.526 0.379v0l-2.174 0.962 1.688 2.888c0.151 0.259 0.198 0.433 0.14 0.523-0.064 0.093-0.209 0.162-0.436 0.207v0c-0.703 0.135-1.173 0.149-1.409 0.042-0.236-0.107-0.495-0.402-0.778-0.884v0l-1.203-2.058-5.91 2.578c-0.341 0.16-0.667 0.311-0.979 0.453-0.308 0.149-0.583 0.293-0.825 0.435v0c-0.394 0.231-0.619 0.488-0.673 0.773-0.049 0.281 0.052 0.637 0.303 1.066v0c0.241 0.412 0.536 0.721 0.886 0.928 0.346 0.2 0.554 0.36 0.623 0.477v0c0.083 0.141 0.039 0.262-0.133 0.362v0c-0.171 0.1-0.465 0.15-0.884 0.15-0.419 0-0.89-0.084-1.415-0.252-0.524-0.167-1.042-0.445-1.553-0.833-0.521-0.391-0.972-0.913-1.354-1.567z" fill="#000000" data-fill-palette-color="primary"></path><path d="M252.723 90.029v0l3.812-2.535c2.043-0.126 3.862-0.135 5.457-0.026 1.598 0.115 2.917 0.374 3.956 0.775 1.039 0.401 1.728 0.971 2.066 1.709v0c0.193 0.422 0.201 0.782 0.023 1.081-0.178 0.299-0.468 0.541-0.872 0.726v0c-0.36 0.165-0.725 0.284-1.097 0.356-0.372 0.073-0.702 0.081-0.989 0.026-0.294-0.053-0.491-0.188-0.591-0.404v0c-0.091-0.198-0.128-0.451-0.111-0.759 0.013-0.299-0.075-0.656-0.266-1.071v0c-0.125-0.273-0.562-0.489-1.31-0.649-0.757-0.163-1.702-0.252-2.834-0.265-1.141-0.017-2.347 0.059-3.619 0.229-1.269 0.161-2.477 0.43-3.625 0.807zM250.642 88.214v0c-0.108-0.236-0.149-0.431-0.122-0.585 0.027-0.155 0.212-0.315 0.556-0.48 0.335-0.169 0.906-0.381 1.711-0.638v0l11.892-3.909 0.874 1.907c0.125 0.273 0.039 0.609-0.259 1.007-0.297 0.399-0.7 0.715-1.208 0.948v0c-0.236 0.108-0.636 0.209-1.201 0.302-0.558 0.091-1.155 0.173-1.789 0.246-0.634 0.073-1.196 0.132-1.686 0.177v0l-2.546 0.311 0.618 0.932-4.759 1.597c-0.188 0.064-0.396 0.028-0.624-0.108-0.23-0.142-0.445-0.325-0.645-0.549-0.2-0.223-0.372-0.444-0.518-0.663-0.145-0.219-0.243-0.384-0.294-0.495z" fill="#000000" data-fill-palette-color="primary"></path><path d="M256.404 102.359v0c-0.493-1.453-0.416-2.732 0.231-3.838 0.647-1.106 1.772-1.93 3.373-2.474v0c1.343-0.456 2.635-0.682 3.875-0.678 1.244-0.005 2.396 0.195 3.455 0.599 1.063 0.395 1.977 0.975 2.74 1.738 0.761 0.757 1.325 1.675 1.691 2.753v0c0.436 1.285 0.495 2.36 0.176 3.224-0.312 0.862-0.979 1.467-1.998 1.813v0c-1.04 0.353-2.063 0.319-3.071-0.102-1.01-0.428-2.005-1.196-2.986-2.303-0.99-1.112-1.978-2.497-2.966-4.157v0l1.579-0.947c0.48 0.989 1.029 1.865 1.649 2.628 0.617 0.756 1.283 1.307 1.998 1.654 0.716 0.348 1.442 0.396 2.178 0.147v0c0.51-0.173 0.864-0.405 1.061-0.695 0.199-0.284 0.212-0.68 0.038-1.191v0c-0.263-0.775-0.77-1.334-1.52-1.677-0.746-0.352-1.62-0.509-2.623-0.47-0.996 0.036-2.004 0.227-3.024 0.573v0c-1.375 0.467-2.224 0.989-2.547 1.567-0.314 0.582-0.329 1.289-0.047 2.122v0c0.294 0.865 0.687 1.578 1.18 2.138 0.493 0.56 0.971 1.024 1.434 1.393v0c0.147 0.116 0.267 0.223 0.358 0.321 0.095 0.09 0.156 0.174 0.182 0.252v0c0.033 0.097 0.023 0.183-0.03 0.259-0.058 0.084-0.135 0.143-0.232 0.176v0c-0.336 0.114-0.784 0.097-1.346-0.051-0.553-0.144-1.141-0.423-1.765-0.838-0.621-0.408-1.205-0.941-1.752-1.598-0.554-0.655-0.984-1.434-1.291-2.338z" fill="#000000" data-fill-palette-color="primary"></path><path d="M11.033 142.567c0-1.317 1.068-2.385 2.385-2.385 1.317 0 2.385 1.068 2.385 2.385 0 1.317-1.068 2.385-2.385 2.385-1.317 0-2.385-1.068-2.385-2.385z" fill="#000000" data-fill-palette-color="primary"></path><path d="M268.822 142.567c0-1.317 1.068-2.385 2.385-2.385 1.317 0 2.385 1.068 2.385 2.385 0 1.317-1.068 2.385-2.385 2.385-1.317 0-2.385-1.068-2.385-2.385z" fill="#000000" data-fill-palette-color="primary"></path></g><g id="text-1"><path d="M13.689 189.198v0c-0.131-0.409-0.068-0.891 0.191-1.447 0.252-0.554 0.634-1.138 1.146-1.754 0.51-0.622 1.099-1.241 1.768-1.856 0.669-0.616 1.361-1.181 2.077-1.697v0c0.204-0.144 0.447-0.315 0.727-0.513 0.289-0.193 0.583-0.337 0.881-0.433v0c0.208-0.067 0.41-0.096 0.606-0.087 0.196 0.009 0.419 0.045 0.669 0.108v0c0.718 0.185 1.432 0.457 2.142 0.817 0.714 0.351 1.381 0.778 2.001 1.281 0.626 0.501 1.163 1.048 1.612 1.642 0.45 0.6 0.777 1.216 0.978 1.846v0c0.162 0.507 0.145 0.877-0.051 1.112-0.188 0.239-0.497 0.428-0.925 0.565v0c-0.409 0.131-0.786 0.195-1.132 0.191-0.339-0.006-0.616-0.057-0.833-0.152-0.217-0.095-0.346-0.208-0.387-0.337v0c-0.077-0.24-0.092-0.543-0.045-0.91 0.047-0.366-0.001-0.773-0.145-1.221v0c-0.246-0.766-0.719-1.392-1.418-1.876-0.7-0.485-1.406-0.81-2.117-0.976v0l1.298-0.104c-1.891 1.495-3.268 2.749-4.132 3.763-0.868 1.023-1.478 1.856-1.83 2.5v0c-0.216 0.42-0.344 0.769-0.384 1.047-0.044 0.286-0.161 0.46-0.349 0.52v0c-0.24 0.077-0.527-0.003-0.861-0.24-0.332-0.23-0.638-0.515-0.919-0.854-0.289-0.344-0.479-0.656-0.568-0.935zM11.521 182.706l-0.628-1.958c-0.108-0.338 0.012-0.666 0.36-0.986 0.351-0.313 0.801-0.551 1.351-0.712v0c0.636-0.183 1.408-0.366 2.316-0.55 0.906-0.19 1.802-0.377 2.688-0.561v0l6.858-1.329c0.88-0.16 1.635-0.374 2.265-0.641 0.639-0.262 1.193-0.522 1.662-0.78 0.477-0.253 0.891-0.436 1.242-0.549v0c0.208-0.067 0.445 0.036 0.711 0.309 0.262 0.281 0.514 0.619 0.756 1.015 0.241 0.395 0.41 0.742 0.505 1.041v0c0.102 0.318-0.039 0.671-0.422 1.059-0.378 0.386-0.865 0.675-1.463 0.867v0c-0.13 0.042-0.499 0.142-1.106 0.301-0.61 0.153-1.316 0.297-2.118 0.432v0l-6.726 1.169c-1.405 0.243-2.785 0.539-4.141 0.888-1.354 0.356-2.724 0.684-4.11 0.985z" fill="#000000" data-fill-palette-color="primary"></path><path d="M17.457 198.721v0c-0.324-0.692-0.387-1.317-0.189-1.877 0.204-0.562 0.689-1.022 1.455-1.381v0c0.266-0.124 0.534-0.242 0.805-0.354 0.268-0.118 0.598-0.242 0.989-0.373 0.4-0.127 0.906-0.292 1.519-0.496v0l8.413-2.705 0.871 1.862c0.142 0.303 0.063 0.584-0.237 0.845-0.3 0.261-0.7 0.508-1.2 0.742v0c-0.371 0.173-0.872 0.374-1.503 0.602-0.628 0.234-1.33 0.464-2.105 0.691v0l-2.334 0.708c-0.529 0.157-0.997 0.316-1.403 0.476-0.401 0.157-0.725 0.294-0.972 0.41v0c-0.352 0.165-0.605 0.332-0.759 0.502-0.148 0.167-0.168 0.365-0.061 0.593v0c0.124 0.266 0.476 0.511 1.056 0.737 0.586 0.223 1.304 0.414 2.154 0.573 0.847 0.153 1.732 0.251 2.656 0.293 0.917 0.045 1.779 0.029 2.587-0.047 0.81-0.07 1.463-0.221 1.957-0.453v0c0.414-0.194 0.734-0.403 0.959-0.629 0.232-0.229 0.438-0.375 0.62-0.437v0c0.161-0.075 0.35-0.04 0.569 0.106 0.219 0.146 0.435 0.342 0.648 0.589 0.213 0.247 0.408 0.502 0.585 0.766 0.182 0.261 0.311 0.472 0.386 0.632v0c0.142 0.303 0.072 0.621-0.208 0.956-0.274 0.332-0.757 0.618-1.45 0.859v0l-11.871 4.03-0.875-1.871c-0.098-0.21-0.065-0.429 0.099-0.657 0.165-0.228 0.379-0.429 0.643-0.605 0.261-0.182 0.463-0.307 0.604-0.374v0c0.408-0.191 0.88-0.34 1.417-0.448 0.531-0.105 1.222-0.221 2.073-0.349 0.851-0.127 1.935-0.307 3.249-0.538v0l-0.454 0.213c-2.134 0.155-3.936 0.069-5.407-0.26-1.471-0.328-2.638-0.787-3.501-1.377-0.857-0.593-1.452-1.244-1.785-1.954z" fill="#000000" data-fill-palette-color="primary"></path><path d="M36.579 229.776l-1.229-1.763c-0.121-0.173-0.125-0.358-0.011-0.553 0.115-0.205 0.27-0.388 0.465-0.549 0.195-0.161 0.357-0.286 0.486-0.376v0c0.229-0.16 0.532-0.346 0.908-0.558 0.376-0.212 0.777-0.43 1.204-0.652 0.428-0.232 0.803-0.423 1.123-0.571v0l2.796-1.338c0.356-0.181 0.691-0.345 1.005-0.489 0.311-0.15 0.629-0.339 0.953-0.565v0c0.241-0.168 0.392-0.344 0.455-0.529 0.062-0.185 0.037-0.358-0.076-0.52v0c-0.144-0.207-0.586-0.411-1.324-0.611-0.738-0.2-1.668-0.317-2.788-0.351-1.121-0.033-2.36 0.091-3.719 0.373-1.362 0.276-2.731 0.798-4.107 1.567v0l3.181-3.004c2.323-0.639 4.321-0.939 5.994-0.899 1.673 0.039 3.037 0.29 4.091 0.752 1.05 0.457 1.784 0.984 2.201 1.583v0c0.347 0.498 0.535 0.957 0.562 1.378 0.033 0.417-0.07 0.818-0.31 1.202-0.234 0.379-0.584 0.731-1.048 1.054v0c-0.341 0.238-0.719 0.46-1.132 0.665-0.419 0.209-0.862 0.427-1.329 0.652v0zM25.277 213.762v0c-0.144-0.207-0.217-0.389-0.218-0.546-0.001-0.157 0.147-0.344 0.445-0.56 0.3-0.226 0.815-0.531 1.545-0.915v0l10.826-5.864 1.175 1.687c0.222 0.319 0.209 0.681-0.039 1.088-0.247 0.397-0.594 0.751-1.042 1.063v0c-0.213 0.148-0.583 0.315-1.111 0.5-0.524 0.191-1.086 0.374-1.685 0.551-0.605 0.181-1.138 0.336-1.597 0.465v0l-2.413 0.76 0.771 0.784-4.222 2.332c-0.168 0.092-0.375 0.1-0.621 0.022-0.246-0.078-0.491-0.198-0.737-0.359-0.246-0.161-0.464-0.337-0.655-0.529-0.191-0.191-0.332-0.351-0.422-0.479zM30.238 220.878v0c-0.203-0.291-0.272-0.509-0.206-0.654 0.069-0.14 0.241-0.305 0.514-0.496v0c0.241-0.168 0.654-0.415 1.242-0.741 0.582-0.322 1.501-0.78 2.758-1.374v0l2.788-1.296c0.371-0.159 0.727-0.328 1.068-0.507 0.341-0.179 0.67-0.38 0.989-0.602v0c0.224-0.156 0.367-0.314 0.43-0.475 0.053-0.162 0.02-0.33-0.101-0.503v0c-0.16-0.229-0.615-0.453-1.365-0.669-0.75-0.217-1.687-0.345-2.811-0.385-1.125-0.039-2.366 0.082-3.725 0.365-1.362 0.276-2.731 0.798-4.107 1.566v0l3.146-3.053c1.734-0.494 3.297-0.769 4.688-0.824 1.387-0.061 2.599 0.013 3.634 0.222 1.03 0.213 1.881 0.509 2.552 0.889 0.672 0.38 1.154 0.779 1.447 1.198v0c0.367 0.526 0.555 1.005 0.566 1.439 0.02 0.435-0.085 0.82-0.316 1.156-0.227 0.341-0.512 0.631-0.853 0.869v0c-0.397 0.277-0.859 0.503-1.385 0.679-0.526 0.176-1.173 0.369-1.94 0.579-0.773 0.215-1.73 0.529-2.873 0.942v0l0.842 0.599-4.5 2.489c-0.168 0.092-0.371 0.105-0.61 0.038-0.242-0.073-0.487-0.197-0.734-0.374-0.238-0.175-0.464-0.362-0.679-0.562-0.209-0.204-0.362-0.376-0.459-0.515z" fill="#000000" data-fill-palette-color="primary"></path><path d="M48.543 242.621v0c-0.303-0.305-0.465-0.764-0.487-1.376-0.027-0.608 0.048-1.302 0.225-2.082 0.172-0.785 0.416-1.604 0.732-2.457 0.317-0.852 0.676-1.671 1.08-2.455v0c0.117-0.221 0.255-0.484 0.415-0.787 0.17-0.303 0.366-0.565 0.589-0.786v0c0.155-0.154 0.322-0.271 0.5-0.353 0.179-0.081 0.394-0.15 0.644-0.207v0c0.724-0.161 1.484-0.243 2.28-0.245 0.796-0.012 1.584 0.066 2.364 0.233 0.785 0.162 1.513 0.406 2.182 0.731 0.674 0.33 1.244 0.73 1.71 1.2v0c0.375 0.378 0.528 0.716 0.459 1.014-0.059 0.299-0.248 0.607-0.567 0.924v0c-0.305 0.303-0.612 0.531-0.921 0.684-0.304 0.148-0.575 0.229-0.811 0.243-0.236 0.014-0.403-0.028-0.499-0.125v0c-0.178-0.179-0.329-0.442-0.453-0.79-0.124-0.348-0.352-0.688-0.683-1.023v0c-0.567-0.571-1.272-0.914-2.116-1.027-0.843-0.114-1.62-0.083-2.329 0.092v0l1.109-0.683c-1.006 2.19-1.664 3.934-1.972 5.23-0.309 1.306-0.474 2.325-0.496 3.058v0c-0.002 0.473 0.043 0.842 0.133 1.107 0.091 0.275 0.066 0.482-0.075 0.622v0c-0.179 0.178-0.471 0.237-0.875 0.178-0.4-0.055-0.802-0.169-1.207-0.345-0.414-0.175-0.724-0.367-0.931-0.575zM43.663 237.822l-1.448-1.459c-0.25-0.252-0.292-0.599-0.127-1.042 0.17-0.438 0.464-0.854 0.88-1.248v0c0.484-0.452 1.089-0.965 1.814-1.541 0.721-0.581 1.434-1.155 2.14-1.721v0l5.506-4.299c0.711-0.542 1.287-1.075 1.728-1.599 0.45-0.524 0.826-1.007 1.126-1.45 0.31-0.443 0.596-0.793 0.858-1.053v0c0.155-0.154 0.413-0.17 0.774-0.048 0.361 0.132 0.739 0.319 1.133 0.561 0.395 0.243 0.702 0.475 0.924 0.698v0c0.235 0.237 0.27 0.616 0.104 1.136-0.161 0.515-0.464 0.994-0.909 1.436v0c-0.097 0.096-0.38 0.353-0.85 0.771-0.474 0.413-1.038 0.862-1.69 1.347v0l-5.462 4.096c-1.141 0.854-2.237 1.745-3.286 2.671-1.045 0.932-2.117 1.846-3.215 2.744z" fill="#000000" data-fill-palette-color="primary"></path><path d="M56.227 249.395v0c-0.603-0.469-0.943-0.998-1.021-1.586-0.074-0.593 0.149-1.224 0.668-1.891v0c0.18-0.231 0.366-0.459 0.557-0.682 0.186-0.227 0.423-0.488 0.712-0.781 0.299-0.295 0.674-0.672 1.127-1.131v0l6.266-6.233 1.622 1.263c0.264 0.205 0.321 0.492 0.173 0.861-0.149 0.368-0.392 0.77-0.732 1.206v0c-0.251 0.323-0.607 0.729-1.066 1.219-0.454 0.494-0.974 1.018-1.561 1.572v0l-1.757 1.691c-0.4 0.38-0.744 0.734-1.034 1.062-0.285 0.322-0.512 0.591-0.68 0.806v0c-0.239 0.307-0.388 0.571-0.448 0.792-0.056 0.216 0.016 0.401 0.215 0.557v0c0.231 0.18 0.657 0.239 1.276 0.176 0.623-0.068 1.35-0.224 2.179-0.468 0.824-0.248 1.657-0.563 2.499-0.945 0.838-0.376 1.599-0.782 2.283-1.218 0.69-0.431 1.202-0.862 1.538-1.292v0c0.281-0.361 0.47-0.693 0.568-0.996 0.102-0.309 0.22-0.533 0.354-0.671v0c0.109-0.14 0.294-0.195 0.556-0.164 0.261 0.031 0.543 0.107 0.845 0.23 0.302 0.123 0.591 0.262 0.868 0.417 0.281 0.15 0.492 0.279 0.631 0.388v0c0.264 0.205 0.347 0.521 0.249 0.946-0.094 0.42-0.394 0.895-0.901 1.424v0l-8.744 8.983-1.631-1.27c-0.183-0.142-0.253-0.352-0.209-0.63 0.043-0.278 0.142-0.555 0.297-0.831 0.15-0.281 0.273-0.483 0.369-0.608v0c0.277-0.355 0.629-0.703 1.058-1.042 0.425-0.335 0.988-0.752 1.689-1.253 0.701-0.5 1.584-1.152 2.65-1.955v0l-0.308 0.395c-1.83 1.107-3.475 1.849-4.935 2.225-1.46 0.376-2.708 0.497-3.745 0.364-1.033-0.139-1.859-0.449-2.477-0.93z" fill="#000000" data-fill-palette-color="primary"></path><path d="M87.368 268.374l-1.895-1.011c-0.186-0.1-0.274-0.262-0.261-0.488 0.009-0.235 0.064-0.468 0.165-0.7 0.101-0.232 0.188-0.418 0.262-0.556v0c0.132-0.247 0.317-0.55 0.555-0.91 0.238-0.36 0.497-0.736 0.777-1.128 0.276-0.401 0.523-0.741 0.741-1.019v0l1.883-2.461c0.234-0.323 0.459-0.621 0.673-0.893 0.209-0.275 0.406-0.587 0.593-0.936v0c0.138-0.259 0.193-0.484 0.165-0.678-0.028-0.193-0.13-0.336-0.305-0.429v0c-0.223-0.119-0.708-0.1-1.456 0.057-0.749 0.157-1.63 0.475-2.644 0.954-1.014 0.479-2.061 1.153-3.143 2.021-1.088 0.865-2.071 1.952-2.948 3.262v0l1.47-4.121c1.78-1.624 3.424-2.799 4.932-3.524 1.508-0.725 2.837-1.121 3.986-1.188 1.143-0.07 2.036 0.067 2.68 0.411v0c0.535 0.286 0.911 0.61 1.127 0.973 0.219 0.357 0.309 0.76 0.269 1.21-0.036 0.444-0.188 0.916-0.454 1.416v0c-0.196 0.367-0.432 0.736-0.707 1.107-0.279 0.377-0.574 0.772-0.888 1.184v0zM70.026 259.241v0c-0.223-0.119-0.37-0.248-0.443-0.387-0.073-0.139-0.025-0.373 0.143-0.701 0.165-0.337 0.485-0.843 0.96-1.516v0l6.981-10.142 1.814 0.969c0.343 0.183 0.496 0.512 0.459 0.987-0.04 0.466-0.188 0.939-0.446 1.42v0c-0.122 0.229-0.376 0.545-0.762 0.95-0.38 0.408-0.797 0.827-1.251 1.257-0.457 0.436-0.861 0.816-1.211 1.139v0l-1.805 1.773 1.043 0.348-2.702 3.996c-0.108 0.159-0.289 0.259-0.544 0.302-0.254 0.042-0.528 0.047-0.819 0.014-0.292-0.032-0.567-0.09-0.824-0.173-0.257-0.083-0.455-0.162-0.593-0.236zM77.678 263.328v0c-0.313-0.167-0.473-0.33-0.481-0.489-0.002-0.156 0.076-0.381 0.233-0.676v0c0.138-0.259 0.395-0.667 0.77-1.224 0.372-0.551 0.983-1.377 1.833-2.477v0l1.895-2.42c0.259-0.31 0.499-0.623 0.721-0.938 0.222-0.314 0.425-0.643 0.608-0.986v0c0.128-0.241 0.184-0.447 0.167-0.617-0.026-0.169-0.132-0.303-0.319-0.403v0c-0.247-0.132-0.753-0.124-1.52 0.024-0.767 0.147-1.66 0.459-2.679 0.935-1.02 0.476-2.07 1.148-3.152 2.016-1.088 0.865-2.071 1.952-2.948 3.261v0l1.416-4.149c1.32-1.228 2.588-2.182 3.802-2.864 1.208-0.685 2.321-1.169 3.338-1.452 1.014-0.278 1.907-0.4 2.678-0.368 0.771 0.033 1.382 0.17 1.833 0.411v0c0.565 0.302 0.951 0.643 1.158 1.024 0.216 0.378 0.297 0.769 0.243 1.174-0.048 0.408-0.169 0.795-0.365 1.161v0c-0.228 0.427-0.537 0.838-0.925 1.234-0.389 0.395-0.877 0.861-1.466 1.398-0.591 0.542-1.301 1.257-2.13 2.144v0l1.021 0.151-2.879 4.261c-0.108 0.159-0.283 0.262-0.525 0.311-0.248 0.045-0.523 0.045-0.824 0.001-0.292-0.047-0.578-0.112-0.86-0.193-0.278-0.087-0.493-0.17-0.643-0.25z" fill="#000000" data-fill-palette-color="primary"></path><path d="M105.959 275.171v0c-0.908-0.247-1.475-0.683-1.7-1.31-0.224-0.633-0.116-1.498 0.322-2.594v0l3.456-8.358-0.898-0.244c-0.29-0.079-0.394-0.266-0.314-0.562v0c0.052-0.191 0.255-0.432 0.61-0.725 0.353-0.286 0.786-0.592 1.299-0.919 0.521-0.332 1.046-0.638 1.575-0.919 0.535-0.279 1.018-0.497 1.45-0.656 0.425-0.16 0.733-0.214 0.924-0.162v0c0.204 0.055 0.323 0.176 0.357 0.362 0.03 0.178-0.005 0.384-0.104 0.618v0l-0.865 2.172 3.179 0.863c0.283 0.077 0.434 0.171 0.453 0.282 0.021 0.105-0.033 0.252-0.163 0.443v0c-0.404 0.576-0.724 0.909-0.96 1.001-0.235 0.085-0.619 0.055-1.152-0.091v0l-2.271-0.616-2.349 5.881c-0.138 0.351-0.264 0.685-0.378 1-0.12 0.314-0.216 0.602-0.288 0.865v0c-0.118 0.434-0.096 0.769 0.067 1.004 0.156 0.233 0.471 0.414 0.945 0.543v0c0.454 0.123 0.874 0.138 1.259 0.045 0.381-0.102 0.637-0.134 0.769-0.099v0c0.151 0.041 0.201 0.157 0.149 0.348v0c-0.05 0.184-0.22 0.421-0.51 0.71-0.29 0.289-0.677 0.555-1.16 0.798-0.483 0.243-1.04 0.407-1.67 0.49-0.637 0.081-1.314 0.025-2.032-0.17z" fill="#000000" data-fill-palette-color="primary"></path><path d="M118.969 276.856v0l0.034-4.495c1.03-1.736 2.028-3.222 2.994-4.458 0.975-1.241 1.911-2.174 2.811-2.798 0.899-0.624 1.746-0.87 2.539-0.738v0c0.444 0.074 0.737 0.268 0.878 0.582 0.148 0.315 0.187 0.684 0.116 1.108v0c-0.064 0.383-0.169 0.746-0.316 1.088-0.148 0.349-0.322 0.624-0.522 0.826-0.206 0.201-0.424 0.282-0.652 0.244v0c-0.215-0.036-0.443-0.143-0.683-0.321-0.233-0.177-0.572-0.303-1.016-0.377v0c-0.289-0.048-0.709 0.189-1.259 0.712-0.544 0.525-1.134 1.245-1.772 2.163-0.637 0.917-1.24 1.94-1.808 3.069-0.569 1.129-1.017 2.261-1.344 3.395zM116.353 277.55v0c-0.249-0.042-0.43-0.117-0.543-0.225-0.113-0.109-0.143-0.345-0.089-0.71 0.048-0.372 0.19-0.954 0.426-1.744v0l3.376-11.841 2.028 0.339c0.289 0.048 0.512 0.307 0.669 0.775 0.165 0.463 0.202 0.964 0.112 1.502v0c-0.043 0.256-0.182 0.637-0.419 1.144-0.23 0.508-0.491 1.038-0.784 1.59-0.294 0.559-0.555 1.048-0.783 1.467v0l-1.144 2.256 1.099-0.003-1.332 4.756c-0.053 0.192-0.195 0.341-0.428 0.447-0.24 0.112-0.505 0.189-0.795 0.23-0.297 0.04-0.573 0.057-0.827 0.049-0.262-0.002-0.451-0.013-0.566-0.032z" fill="#000000" data-fill-palette-color="primary"></path><path d="M131.649 279.587v0c-1.096-0.058-1.856-0.545-2.28-1.462-0.423-0.91-0.593-2.169-0.508-3.775v0c0.075-1.43 0.355-2.73 0.839-3.9 0.478-1.17 1.104-2.172 1.879-3.005 0.768-0.834 1.644-1.464 2.629-1.891 0.986-0.433 2.016-0.622 3.092-0.565v0c0.838 0.044 1.598 0.196 2.281 0.458 0.683 0.261 1.263 0.524 1.741 0.788v0l-1.009 3.03c-0.513-0.375-1.089-0.726-1.727-1.054-0.638-0.327-1.232-0.59-1.782-0.79-0.55-0.193-0.961-0.296-1.233-0.31v0c-0.552-0.029-1.07 0.214-1.555 0.728-0.491 0.514-0.895 1.237-1.209 2.169-0.308 0.933-0.495 2.016-0.56 3.249v0c-0.06 1.137-0.023 2.003 0.11 2.597 0.133 0.594 0.386 0.901 0.761 0.921v0c0.252 0.013 0.696-0.25 1.332-0.79 0.636-0.547 1.423-1.472 2.358-2.776 0.929-1.31 1.934-3.095 3.016-5.353v0l0.69 2.659c-1.186 2.294-2.292 4.11-3.318 5.45-1.033 1.339-2.005 2.288-2.915 2.848-0.917 0.56-1.795 0.818-2.632 0.774zM140.719 279.888l-2.053-0.107c-0.388-0.02-0.613-0.223-0.675-0.609-0.055-0.385-0.071-0.796-0.048-1.232v0c0.017-0.327 0.083-0.733 0.197-1.219 0.114-0.486 0.254-1.008 0.42-1.566 0.166-0.565 0.342-1.116 0.527-1.652v0l0.759-2.173-0.808-0.8 0.938-4.397c0.632-0.062 1.19-0.16 1.674-0.291 0.492-0.131 0.901-0.25 1.228-0.356 0.326-0.099 0.557-0.145 0.693-0.137v0c0.218 0.011 0.321 0.136 0.308 0.374v0c-0.005 0.095-0.149 0.504-0.433 1.227-0.283 0.716-0.595 1.635-0.933 2.758-0.346 1.122-0.621 2.344-0.827 3.665v0z" fill="#000000" data-fill-palette-color="primary"></path><path d="M150.453 279.895l-2.054 0.104c-0.327 0.017-0.551-0.163-0.672-0.54-0.115-0.377-0.182-0.769-0.203-1.177v0c-0.036-0.708-0.034-1.337 0.006-1.885 0.04-0.555 0.081-1.165 0.123-1.83v0l0.585-9.483 2.053-0.104c0.388-0.02 0.655 0.185 0.8 0.615 0.138 0.423 0.22 0.907 0.247 1.452v0c0.014 0.272 0.008 0.563-0.017 0.871-0.025 0.309-0.06 0.775-0.103 1.399v0l-0.32 4.819c-0.064 1.021-0.127 1.877-0.187 2.571-0.068 0.686-0.116 1.276-0.146 1.769-0.036 0.493-0.074 0.967-0.112 1.419zM150.146 263.317v0c-0.545 0.028-1.028-0.136-1.449-0.49-0.421-0.354-0.647-0.834-0.677-1.44v0c-0.037-0.722 0.17-1.296 0.619-1.722 0.45-0.426 0.977-0.654 1.584-0.684v0c0.565-0.029 1.047 0.114 1.445 0.429 0.398 0.314 0.614 0.805 0.649 1.472v0c0.033 0.661-0.163 1.224-0.591 1.69-0.427 0.465-0.954 0.714-1.58 0.745z" fill="#000000" data-fill-palette-color="primary"></path><path d="M168.578 277.402l-2.064 0.31c-0.216 0.032-0.389-0.045-0.521-0.232-0.139-0.193-0.245-0.411-0.316-0.656-0.064-0.245-0.108-0.446-0.132-0.601v0c-0.042-0.277-0.074-0.63-0.097-1.061-0.023-0.431-0.044-0.887-0.061-1.367-0.011-0.488-0.012-0.908-0.003-1.262v0l0.031-3.097c0.002-0.4 0.008-0.774 0.018-1.12 0.003-0.345-0.024-0.714-0.084-1.105v0c-0.044-0.29-0.134-0.504-0.272-0.642-0.138-0.138-0.305-0.192-0.5-0.162v0c-0.25 0.037-0.631 0.343-1.145 0.917-0.507 0.573-1.02 1.36-1.538 2.362-0.526 0.996-0.961 2.165-1.304 3.506-0.343 1.341-0.476 2.796-0.399 4.363v0l-1.405-4.185c0.327-1.773 0.767-3.294 1.321-4.564 0.554-1.269 1.154-2.322 1.801-3.157 0.648-0.828 1.301-1.461 1.959-1.898 0.658-0.437 1.257-0.696 1.797-0.777v0c0.58-0.087 1.065-0.05 1.455 0.113 0.396 0.154 0.703 0.412 0.923 0.771 0.219 0.353 0.365 0.78 0.44 1.279v0c0.073 0.486 0.111 0.969 0.115 1.452 0.005 0.489 0.008 0.992 0.01 1.509v0zM157.841 279.129v0c-0.25 0.037-0.445 0.022-0.586-0.046-0.141-0.068-0.243-0.284-0.304-0.648-0.069-0.369-0.114-0.966-0.135-1.79v0l-0.453-12.304 2.034-0.305c0.29-0.044 0.582 0.133 0.876 0.53 0.3 0.389 0.49 0.854 0.571 1.393v0c0.039 0.256 0.024 0.662-0.044 1.217-0.062 0.554-0.146 1.139-0.254 1.756-0.106 0.623-0.204 1.169-0.292 1.637v0l-0.389 2.5 1.044-0.344 0.251 4.835c0.009 0.199-0.079 0.391-0.265 0.578-0.192 0.188-0.427 0.35-0.702 0.488-0.275 0.145-0.54 0.26-0.796 0.347-0.256 0.087-0.441 0.139-0.556 0.156z" fill="#000000" data-fill-palette-color="primary"></path><path d="M178.215 275.344l-1.989 0.521c-0.317 0.083-0.573-0.047-0.769-0.39-0.189-0.345-0.336-0.716-0.44-1.111v0c-0.18-0.686-0.306-1.302-0.378-1.847-0.074-0.552-0.159-1.157-0.255-1.816v0l-1.368-9.402 1.989-0.522c0.376-0.099 0.679 0.047 0.908 0.438 0.221 0.386 0.401 0.843 0.54 1.371v0c0.069 0.264 0.123 0.549 0.161 0.857 0.038 0.307 0.1 0.77 0.185 1.389v0l0.674 4.784c0.146 1.012 0.26 1.864 0.342 2.554 0.074 0.686 0.147 1.273 0.219 1.761 0.065 0.491 0.125 0.961 0.181 1.413zM174.522 259.179v0c-0.528 0.139-1.034 0.077-1.518-0.183-0.484-0.261-0.804-0.685-0.957-1.271v0c-0.184-0.699-0.099-1.303 0.254-1.812 0.353-0.509 0.823-0.84 1.41-0.994v0c0.547-0.144 1.048-0.102 1.503 0.124 0.454 0.226 0.766 0.663 0.935 1.309v0c0.168 0.64 0.09 1.231-0.232 1.774-0.323 0.543-0.788 0.894-1.395 1.053z" fill="#000000" data-fill-palette-color="primary"></path><path d="M195.447 269.191l-1.957 0.727c-0.205 0.076-0.39 0.036-0.557-0.121-0.176-0.16-0.324-0.353-0.444-0.577-0.113-0.227-0.197-0.414-0.252-0.561v0c-0.097-0.262-0.202-0.602-0.312-1.019-0.111-0.417-0.224-0.859-0.34-1.325-0.111-0.475-0.198-0.887-0.261-1.234v0l-0.604-3.039c-0.08-0.392-0.151-0.759-0.212-1.1-0.068-0.339-0.17-0.693-0.308-1.064v0c-0.102-0.275-0.235-0.466-0.398-0.572-0.163-0.107-0.338-0.126-0.523-0.057v0c-0.237 0.088-0.547 0.465-0.933 1.132-0.379 0.664-0.72 1.54-1.022 2.627-0.311 1.083-0.497 2.316-0.558 3.699-0.061 1.383 0.106 2.834 0.503 4.352v0l-2.232-3.808c-0.043-1.802 0.076-3.382 0.358-4.738 0.282-1.356 0.654-2.509 1.116-3.459 0.464-0.944 0.974-1.697 1.53-2.259 0.555-0.562 1.088-0.939 1.599-1.128v0c0.55-0.204 1.032-0.267 1.447-0.188 0.419 0.07 0.773 0.259 1.062 0.566 0.286 0.301 0.517 0.688 0.693 1.161v0c0.171 0.46 0.307 0.926 0.409 1.398 0.105 0.478 0.211 0.969 0.319 1.475v0zM185.291 273.081v0c-0.237 0.088-0.431 0.113-0.583 0.075-0.152-0.038-0.296-0.228-0.43-0.572-0.143-0.347-0.309-0.922-0.499-1.724v0l-2.963-11.95 1.928-0.716c0.275-0.102 0.597 0.011 0.966 0.34 0.373 0.32 0.655 0.735 0.845 1.246v0c0.09 0.243 0.159 0.643 0.206 1.201 0.053 0.555 0.09 1.145 0.111 1.77 0.023 0.631 0.04 1.185 0.05 1.662v0l0.13 2.526 0.953-0.55 1.235 4.681c0.05 0.193 0.003 0.399-0.141 0.62-0.15 0.223-0.346 0.43-0.587 0.622-0.239 0.198-0.475 0.366-0.708 0.503-0.233 0.137-0.403 0.226-0.513 0.266z" fill="#000000" data-fill-palette-color="primary"></path><path d="M208.915 269.484v0c-0.827 0.449-1.65 0.734-2.471 0.853-0.811 0.122-1.565 0.027-2.261-0.284-0.694-0.321-1.274-0.91-1.74-1.768v0c-0.16-0.294-0.146-0.491 0.039-0.591v0c0.09-0.049 0.222-0.078 0.395-0.087 0.177-0.003 0.409-0.005 0.696-0.005v0c0.406 0.005 0.941-0.003 1.606-0.023 0.674-0.017 1.351-0.078 2.03-0.183 0.683-0.1 1.238-0.265 1.663-0.496v0c0.276-0.15 0.507-0.353 0.694-0.61 0.187-0.257 0.303-0.615 0.348-1.074 0.051-0.463 0.011-1.065-0.121-1.808-0.138-0.74-0.388-1.671-0.75-2.795v0l-2.513-7.691-0.796-0.371-1.77-3.323c1.022-0.734 1.747-1.306 2.176-1.717 0.423-0.408 0.73-0.664 0.921-0.768v0c0.168-0.091 0.309-0.032 0.423 0.178v0c0.046 0.084 0.136 0.5 0.271 1.249 0.133 0.758 0.346 1.702 0.641 2.83 0.304 1.131 0.769 2.33 1.395 3.596v0l2.336 4.75c0.606 1.231 0.921 2.375 0.945 3.433 0.03 1.055-0.154 2.016-0.552 2.884-0.394 0.874-0.913 1.633-1.557 2.278-0.647 0.638-1.329 1.153-2.048 1.543zM204.314 264.894v0c-0.965 0.524-1.867 0.506-2.707-0.054-0.84-0.56-1.642-1.545-2.408-2.953v0c-0.645-1.187-1.065-2.39-1.262-3.61-0.197-1.22-0.188-2.382 0.028-3.485 0.219-1.097 0.631-2.089 1.235-2.976 0.599-0.884 1.371-1.583 2.318-2.097v0c0.737-0.4 1.465-0.668 2.184-0.802 0.719-0.134 1.351-0.214 1.896-0.239v0l0.724 3.111c-0.633-0.052-1.308-0.05-2.023 0.005-0.715 0.055-1.359 0.141-1.932 0.258-0.57 0.123-0.974 0.25-1.214 0.38v0c-0.485 0.264-0.79 0.739-0.913 1.427-0.126 0.697-0.08 1.51 0.138 2.44 0.212 0.933 0.588 1.896 1.128 2.891v0c0.544 1.001 1.03 1.718 1.46 2.152 0.424 0.437 0.8 0.566 1.13 0.387v0c0.222-0.12 0.466-0.564 0.733-1.329 0.258-0.769 0.446-1.93 0.564-3.485 0.115-1.56 0.04-3.584-0.225-6.071v0l1.978 1.906c0.194 2.572 0.197 4.685 0.01 6.339-0.185 1.645-0.519 2.924-1 3.838-0.491 0.911-1.105 1.566-1.842 1.967z" fill="#000000" data-fill-palette-color="primary"></path><path d="M229.341 248.756v0c-1.193 0.987-2.413 1.373-3.662 1.158-1.249-0.215-2.447-1.016-3.595-2.402v0c-1.122-1.356-1.865-2.799-2.229-4.33-0.364-1.531-0.34-2.994 0.073-4.389 0.408-1.4 1.209-2.594 2.401-3.58v0c0.63-0.522 1.257-0.899 1.879-1.131 0.623-0.232 1.151-0.085 1.586 0.441v0c0.187 0.226 0.337 0.482 0.451 0.769 0.108 0.291 0.165 0.563 0.17 0.815 0.005 0.252-0.053 0.429-0.174 0.528v0c-0.058 0.048-0.154 0.097-0.29 0.147-0.136 0.05-0.262 0.084-0.38 0.103v0c-0.25 0.03-0.549 0.074-0.899 0.133-0.344 0.055-0.699 0.145-1.064 0.27-0.371 0.13-0.706 0.318-1.005 0.566v0c-0.468 0.387-0.705 0.951-0.712 1.691-0.012 0.745 0.177 1.567 0.566 2.466 0.39 0.899 0.935 1.771 1.635 2.617v0c0.926 1.119 1.709 1.723 2.35 1.813 0.65 0.09 1.301-0.134 1.953-0.673v0c0.541-0.448 0.923-0.923 1.144-1.425 0.222-0.502 0.406-1.018 0.553-1.546v0c0.063-0.202 0.12-0.347 0.172-0.435 0.056-0.082 0.116-0.149 0.179-0.201v0c0.074-0.061 0.158-0.082 0.253-0.063 0.094 0.028 0.172 0.079 0.232 0.153v0c0.226 0.273 0.372 0.679 0.437 1.218 0.07 0.544 0.042 1.142-0.082 1.794-0.119 0.647-0.339 1.281-0.658 1.9-0.315 0.615-0.743 1.146-1.284 1.593z" fill="#000000" data-fill-palette-color="primary"></path><path d="M239.933 239.005v0c-1.05 1.082-2.202 1.588-3.457 1.521-1.26-0.073-2.487-0.688-3.681-1.848v0c-0.998-0.969-1.773-1.996-2.325-3.083-0.561-1.086-0.903-2.183-1.026-3.29-0.132-1.107-0.035-2.167 0.292-3.18 0.322-1.008 0.873-1.913 1.652-2.716v0c0.926-0.954 1.839-1.484 2.739-1.59 0.9-0.115 1.73 0.196 2.488 0.932v0c0.773 0.75 1.199 1.663 1.279 2.737 0.079 1.074-0.146 2.291-0.676 3.649-0.525 1.353-1.293 2.836-2.306 4.448v0l-1.541-0.954c0.652-0.868 1.175-1.739 1.567-2.613 0.392-0.884 0.577-1.716 0.556-2.497-0.021-0.781-0.306-1.437-0.855-1.969v0c-0.382-0.37-0.742-0.577-1.08-0.621-0.338-0.043-0.69 0.124-1.056 0.501v0c-0.56 0.578-0.825 1.271-0.793 2.081 0.031 0.81 0.285 1.645 0.761 2.506 0.481 0.856 1.1 1.652 1.859 2.388v0c1.028 0.997 1.865 1.506 2.512 1.525 0.656 0.019 1.283-0.28 1.882-0.897v0c0.632-0.651 1.08-1.318 1.344-2.002 0.265-0.684 0.455-1.311 0.572-1.882v0c0.041-0.179 0.079-0.332 0.116-0.458 0.042-0.121 0.091-0.211 0.148-0.27v0c0.066-0.069 0.148-0.099 0.245-0.09 0.097 0.018 0.179 0.06 0.247 0.126v0c0.255 0.247 0.441 0.647 0.561 1.2 0.119 0.553 0.139 1.194 0.058 1.923-0.076 0.725-0.279 1.473-0.61 2.245-0.326 0.777-0.817 1.503-1.472 2.178z" fill="#000000" data-fill-palette-color="primary"></path><path d="M254.73 220.936l-1.259 1.663c-0.132 0.174-0.31 0.24-0.535 0.198-0.234-0.041-0.463-0.124-0.685-0.248-0.218-0.131-0.389-0.243-0.514-0.338v0c-0.223-0.169-0.493-0.399-0.811-0.691-0.318-0.292-0.651-0.604-0.998-0.936-0.349-0.341-0.644-0.641-0.884-0.9v0l-2.142-2.238c-0.278-0.288-0.535-0.559-0.769-0.814-0.239-0.249-0.516-0.493-0.832-0.732v0c-0.234-0.177-0.448-0.267-0.643-0.269-0.195-0.002-0.352 0.075-0.472 0.233v0c-0.152 0.201-0.212 0.686-0.178 1.456 0.037 0.764 0.221 1.685 0.55 2.765 0.32 1.08 0.825 2.22 1.516 3.419 0.691 1.199 1.612 2.333 2.763 3.401v0l-3.929-2.013c-1.005-1.497-1.753-2.893-2.244-4.188-0.491-1.295-0.796-2.468-0.916-3.517-0.115-1.045-0.09-1.954 0.076-2.727 0.166-0.773 0.413-1.376 0.743-1.811v0c0.354-0.468 0.727-0.78 1.119-0.936 0.391-0.166 0.791-0.197 1.199-0.093 0.403 0.1 0.806 0.302 1.209 0.607v0c0.391 0.296 0.757 0.616 1.096 0.959 0.345 0.347 0.699 0.704 1.061 1.073v0zM248.256 229.673v0c-0.152 0.201-0.303 0.327-0.452 0.376-0.149 0.05-0.372-0.034-0.67-0.251-0.307-0.216-0.756-0.611-1.347-1.186v0l-8.92-8.487 1.241-1.639c0.177-0.234 0.509-0.311 0.998-0.233 0.487 0.069 0.947 0.268 1.382 0.598v0c0.207 0.156 0.479 0.457 0.818 0.902 0.343 0.439 0.691 0.917 1.045 1.433 0.359 0.52 0.671 0.978 0.935 1.375v0l1.468 2.061 0.508-0.976 3.557 3.284c0.145 0.136 0.217 0.335 0.214 0.598-0.007 0.269-0.06 0.549-0.162 0.84-0.095 0.296-0.204 0.564-0.327 0.805-0.122 0.241-0.219 0.407-0.288 0.5z" fill="#000000" data-fill-palette-color="primary"></path><path d="M260.107 212.773v0c-0.475 0.813-1.044 1.246-1.708 1.301-0.67 0.051-1.476-0.278-2.42-0.987v0l-7.17-5.513-0.469 0.804c-0.151 0.259-0.359 0.311-0.625 0.157v0c-0.171-0.1-0.351-0.359-0.541-0.778-0.184-0.415-0.367-0.913-0.549-1.494-0.185-0.59-0.344-1.176-0.477-1.759-0.13-0.589-0.215-1.113-0.256-1.571-0.044-0.452-0.016-0.764 0.084-0.934v0c0.107-0.183 0.254-0.266 0.443-0.251 0.179 0.018 0.369 0.105 0.569 0.262v0l1.872 1.4 1.661-2.844c0.148-0.253 0.278-0.375 0.39-0.365 0.107 0.007 0.235 0.098 0.386 0.273v0c0.451 0.54 0.69 0.936 0.716 1.188 0.021 0.249-0.108 0.612-0.387 1.089v0l-1.187 2.032 5.067 3.799c0.303 0.224 0.592 0.433 0.867 0.625 0.271 0.198 0.525 0.366 0.76 0.503v0c0.389 0.227 0.718 0.293 0.987 0.197 0.266-0.09 0.522-0.347 0.77-0.77v0c0.237-0.406 0.361-0.808 0.371-1.205 0.001-0.394 0.036-0.65 0.105-0.768v0c0.079-0.135 0.204-0.153 0.375-0.053v0c0.165 0.096 0.349 0.322 0.552 0.677 0.203 0.355 0.359 0.798 0.468 1.328 0.109 0.53 0.122 1.11 0.039 1.74-0.087 0.636-0.318 1.275-0.693 1.917z" fill="#000000" data-fill-palette-color="primary"></path><path d="M265.122 200.653v0l-4.331-1.204c-1.408-1.446-2.583-2.797-3.524-4.053-0.944-1.264-1.6-2.412-1.969-3.442-0.368-1.031-0.385-1.912-0.051-2.644v0c0.187-0.409 0.451-0.641 0.791-0.696 0.343-0.061 0.709-0.002 1.1 0.177v0c0.354 0.162 0.676 0.358 0.968 0.589 0.298 0.234 0.518 0.473 0.661 0.718 0.14 0.251 0.162 0.483 0.066 0.694v0c-0.091 0.198-0.253 0.39-0.488 0.575-0.232 0.179-0.441 0.473-0.629 0.883v0c-0.122 0.267-0.002 0.734 0.36 1.402 0.365 0.662 0.907 1.42 1.626 2.273 0.719 0.854 1.55 1.702 2.492 2.546 0.942 0.843 1.918 1.571 2.928 2.182zM265.11 203.359v0c-0.105 0.229-0.225 0.385-0.359 0.465-0.135 0.081-0.371 0.048-0.708-0.099-0.347-0.144-0.871-0.432-1.573-0.865v0l-10.552-6.344 0.855-1.87c0.122-0.267 0.43-0.415 0.923-0.444 0.49-0.038 0.983 0.056 1.479 0.283v0c0.236 0.108 0.567 0.342 0.995 0.702 0.43 0.354 0.874 0.745 1.332 1.172 0.464 0.429 0.867 0.809 1.211 1.138v0l1.881 1.693 0.283-1.063 4.245 2.526c0.171 0.101 0.278 0.277 0.32 0.529 0.046 0.261 0.051 0.537 0.015 0.828-0.038 0.297-0.095 0.568-0.168 0.812-0.071 0.253-0.13 0.432-0.179 0.537z" fill="#000000" data-fill-palette-color="primary"></path><path d="M271.571 187.737v0c-0.483 1.428-1.305 2.381-2.468 2.859-1.169 0.476-2.541 0.447-4.117-0.086v0c-1.318-0.446-2.459-1.04-3.425-1.784-0.974-0.74-1.754-1.583-2.341-2.53-0.595-0.943-0.963-1.942-1.103-2.997-0.142-1.049-0.034-2.103 0.324-3.163v0c0.426-1.26 1.023-2.131 1.791-2.612 0.763-0.491 1.646-0.567 2.647-0.228v0c1.021 0.345 1.798 0.986 2.331 1.922 0.533 0.936 0.852 2.131 0.958 3.585 0.108 1.448 0.051 3.116-0.171 5.007v0l-1.801-0.199c0.216-1.064 0.313-2.075 0.292-3.033-0.026-0.966-0.217-1.797-0.572-2.493-0.355-0.696-0.894-1.166-1.618-1.411v0c-0.504-0.17-0.918-0.202-1.241-0.096-0.324 0.106-0.57 0.408-0.739 0.906v0c-0.258 0.762-0.198 1.502 0.178 2.22 0.376 0.718 0.965 1.363 1.765 1.935 0.802 0.566 1.704 1.019 2.705 1.358v0c1.357 0.459 2.331 0.558 2.923 0.297 0.601-0.265 1.039-0.804 1.314-1.618v0c0.291-0.859 0.408-1.655 0.353-2.386-0.055-0.731-0.153-1.38-0.293-1.946v0c-0.04-0.179-0.071-0.334-0.091-0.463-0.015-0.127-0.009-0.23 0.017-0.307v0c0.031-0.09 0.091-0.153 0.182-0.187 0.095-0.025 0.188-0.023 0.278 0.008v0c0.336 0.114 0.677 0.394 1.022 0.842 0.345 0.448 0.638 1.018 0.879 1.712 0.243 0.687 0.381 1.45 0.414 2.289 0.04 0.841-0.091 1.708-0.393 2.599z" fill="#000000" data-fill-palette-color="primary"></path></g></svg></g></svg></g></svg></g></svg></g><defs></defs></svg><rect width="280" height="280" fill="none" stroke="none" visibility="hidden"></rect></g></svg></g></svg>